<svg xmlns="http://www.w3.org/2000/svg" width="13.986" height="11.956" viewBox="0 0 13.986 11.956">
  <path id="Path_83218" data-name="Path 83218" d="M-7.514,1.313A1.019,1.019,0,0,0-7.046,1.2,2.135,2.135,0,0,0-6.584.868l5.113-4.812A1.023,1.023,0,0,0-1.2-4.313a.977.977,0,0,0,.075-.355A.966.966,0,0,0-1.2-5.028a1.033,1.033,0,0,0-.267-.366l-5.113-4.771a2.457,2.457,0,0,0-.472-.369.9.9,0,0,0-.444-.109.785.785,0,0,0-.6.25.847.847,0,0,0-.232.6v2.379h-.171a7.575,7.575,0,0,0-2.957.526,5.179,5.179,0,0,0-2.054,1.524,6.631,6.631,0,0,0-1.2,2.417,11.876,11.876,0,0,0-.4,3.2,1.218,1.218,0,0,0,.219.783.646.646,0,0,0,.513.27,1.1,1.1,0,0,0,.458-.1.955.955,0,0,0,.4-.434A5.193,5.193,0,0,1-12.286-.824a4.246,4.246,0,0,1,1.634-.834,8.315,8.315,0,0,1,2.146-.25h.171v2.4A.8.8,0,0,0-8.1,1.08.8.8,0,0,0-7.514,1.313Zm.4-1.531a.091.091,0,0,1-.1-.1V-2.769a.19.19,0,0,0-.212-.219H-8.28a8.377,8.377,0,0,0-3.7.708A4.165,4.165,0,0,0-13.995-.355q-.014.027-.024.044a.034.034,0,0,1-.031.017q-.048,0-.048-.068a9.014,9.014,0,0,1,.355-2.222A5.641,5.641,0,0,1-12.761-4.5,4.606,4.606,0,0,1-11-5.848a6.6,6.6,0,0,1,2.717-.5h.848a.19.19,0,0,0,.212-.219v-2.5a.091.091,0,0,1,.1-.1.1.1,0,0,1,.055.017.269.269,0,0,1,.048.038L-2.5-4.792a.189.189,0,0,1,.068.123.12.12,0,0,1-.017.058.3.3,0,0,1-.051.065L-7.015-.273A.137.137,0,0,1-7.118-.219Z" transform="translate(15.116 10.644)"/>
</svg>
